<?xml version="1.0" standalone="no"?>
<!DOCTYPE svg PUBLIC "-//W3C//DTD SVG 20010904//EN"
 "http://www.w3.org/TR/2001/REC-SVG-20010904/DTD/svg10.dtd">
<svg version="1.0" xmlns="http://www.w3.org/2000/svg"
 width="512.000000pt" height="512.000000pt" viewBox="0 0 512.000000 512.000000"
 preserveAspectRatio="xMidYMid meet">
<metadata>
Created by potrace 1.14, written by Peter Selinger 2001-2017
</metadata>
<g transform="translate(0.000000,512.000000) scale(0.100000,-0.100000)"
fill="#000000" stroke="none">
<path d="M2325 4253 c-73 -8 -231 -46 -306 -73 -498 -180 -853 -676 -852
-1192 0 -59 -3 -105 -8 -103 -9 6 -221 6 -261 1 -229 -32 -420 -124 -587 -280
-104 -99 -210 -264 -257 -401 -69 -201 -70 -465 -2 -660 94 -270 276 -473 533
-596 55 -26 141 -58 190 -71 l90 -23 1790 0 c1929 0 1820 -3 1959 52 233 91
418 301 481 548 27 105 26 287 -3 388 -61 215 -207 397 -397 496 -40 21 -41
22 -52 98 -42 285 -234 526 -503 631 -101 39 -202 56 -321 55 l-65 -1 -12 61
c-28 156 -52 230 -120 362 -89 176 -232 346 -389 462 -143 106 -329 187 -523
229 -69 15 -310 25 -385 17z"/>
</g>
</svg>
